<mxfile host="app.diagrams.net" modified="2022-07-25T01:18:45.097Z" agent="5.0 (Windows NT 10.0; Win64; x64) AppleWebKit/537.36 (KHTML, like Gecko) Chrome/103.0.0.0 Safari/537.36" etag="l9anMLspx24tinscq9XI" version="20.2.0" type="github">
  <diagram id="a45cf8ec-cd66-6f27-3ac3-be6e809c9e4a" name="Page-1">
    <mxGraphModel dx="1736" dy="900" grid="1" gridSize="10" guides="1" tooltips="1" connect="1" arrows="1" fold="1" page="1" pageScale="1" pageWidth="827" pageHeight="1169" background="#F1FAEE" math="0" shadow="0">
      <root>
        <mxCell id="0" />
        <mxCell id="1" parent="0" />
        <mxCell id="4HTWWz2ys-ZurxW4JA6u-198" value="" style="rounded=1;whiteSpace=wrap;html=1;" vertex="1" parent="1">
          <mxGeometry x="400" y="294" width="360" height="166" as="geometry" />
        </mxCell>
        <mxCell id="4HTWWz2ys-ZurxW4JA6u-172" value="" style="shape=ext;double=1;rounded=1;whiteSpace=wrap;html=1;fontColor=#1D3557;strokeColor=#457B9D;fillColor=none;gradientColor=none;" vertex="1" parent="1">
          <mxGeometry x="320" y="212" width="460" height="897" as="geometry" />
        </mxCell>
        <mxCell id="4HTWWz2ys-ZurxW4JA6u-197" value="" style="rounded=1;whiteSpace=wrap;html=1;" vertex="1" parent="1">
          <mxGeometry x="395" y="635" width="350" height="150" as="geometry" />
        </mxCell>
        <mxCell id="4HTWWz2ys-ZurxW4JA6u-184" value="" style="rounded=1;whiteSpace=wrap;html=1;" vertex="1" parent="1">
          <mxGeometry x="390" y="956" width="350" height="97" as="geometry" />
        </mxCell>
        <mxCell id="4HTWWz2ys-ZurxW4JA6u-191" value="" style="rounded=1;whiteSpace=wrap;html=1;fontSize=23;fontColor=#1D3557;strokeColor=#457B9D;fillColor=default;gradientColor=none;" vertex="1" parent="1">
          <mxGeometry x="60" y="262" width="190" height="130" as="geometry" />
        </mxCell>
        <mxCell id="5" value="&lt;span style=&quot;line-height: 17.1818180084229px&quot;&gt;FRONT END&lt;/span&gt;" style="rounded=1;whiteSpace=wrap;html=1;shadow=0;strokeColor=none;fillColor=#A8DADC;fontSize=18;fontColor=#1D3557;verticalAlign=middle;fontStyle=0;strokeWidth=3;" parent="1" vertex="1">
          <mxGeometry x="440" y="266" width="300" height="50" as="geometry" />
        </mxCell>
        <mxCell id="24" value="" style="image;html=1;image=img/lib/clip_art/computers/Netbook_128x128.png;shadow=0;strokeColor=#457B9D;fillColor=#A8DADC;fontSize=18;fontColor=#1D3557;fontStyle=0;labelBackgroundColor=#F1FAEE;rounded=1;" parent="1" vertex="1">
          <mxGeometry x="120" y="272" width="110" height="120" as="geometry" />
        </mxCell>
        <mxCell id="168" value="ARQUITECTURA PORTFOLIO WEB" style="text;html=1;strokeColor=none;fillColor=none;align=center;verticalAlign=middle;whiteSpace=wrap;overflow=hidden;shadow=0;fontSize=36;fontColor=#1D3557;fontStyle=0;rounded=1;" parent="1" vertex="1">
          <mxGeometry x="137" y="30" width="543" height="45" as="geometry" />
        </mxCell>
        <mxCell id="49" value="CLOUD" style="ellipse;shape=cloud;whiteSpace=wrap;html=1;shadow=0;strokeColor=#457B9D;fillColor=#A8DADC;fontSize=18;fontColor=#1D3557;fontStyle=0;gradientDirection=north;strokeWidth=2;rounded=1;" parent="1" vertex="1">
          <mxGeometry x="509" y="149" width="171" height="113" as="geometry" />
        </mxCell>
        <mxCell id="171" style="edgeStyle=orthogonalEdgeStyle;rounded=1;jumpStyle=none;html=1;exitX=0;exitY=0.5;entryX=0;entryY=0.5;shadow=0;labelBackgroundColor=none;startArrow=none;startFill=0;endArrow=classic;endFill=1;endSize=6;jettySize=auto;orthogonalLoop=1;strokeColor=#457B9D;strokeWidth=2;fillColor=#A8DADC;fontFamily=Helvetica;fontSize=14;fontColor=#1D3557;align=left;fontStyle=0" parent="1" source="168" target="168" edge="1">
          <mxGeometry relative="1" as="geometry" />
        </mxCell>
        <mxCell id="4HTWWz2ys-ZurxW4JA6u-178" value="" style="verticalLabelPosition=bottom;sketch=0;aspect=fixed;html=1;verticalAlign=top;strokeColor=none;align=center;outlineConnect=0;shape=mxgraph.citrix.document;fontColor=#1D3557;fillColor=none;rounded=1;" vertex="1" parent="1">
          <mxGeometry x="414" y="262" width="47" height="72" as="geometry" />
        </mxCell>
        <mxCell id="4HTWWz2ys-ZurxW4JA6u-179" value="" style="endArrow=classic;startArrow=classic;html=1;rounded=1;fontColor=#1D3557;strokeColor=#457B9D;fillColor=#A8DADC;strokeWidth=11;" edge="1" parent="1">
          <mxGeometry width="50" height="50" relative="1" as="geometry">
            <mxPoint x="580" y="580" as="sourcePoint" />
            <mxPoint x="580" y="470" as="targetPoint" />
          </mxGeometry>
        </mxCell>
        <mxCell id="4HTWWz2ys-ZurxW4JA6u-182" value="&lt;span style=&quot;line-height: 17.1818180084229px&quot;&gt;BACK END&lt;/span&gt;" style="rounded=1;whiteSpace=wrap;html=1;shadow=0;strokeColor=none;fillColor=#A8DADC;fontSize=18;fontColor=#1D3557;verticalAlign=middle;fontStyle=0;strokeWidth=3;align=center;" vertex="1" parent="1">
          <mxGeometry x="430" y="933" width="300" height="50" as="geometry" />
        </mxCell>
        <mxCell id="4HTWWz2ys-ZurxW4JA6u-176" value="" style="verticalLabelPosition=bottom;sketch=0;aspect=fixed;html=1;verticalAlign=top;strokeColor=none;align=center;outlineConnect=0;shape=mxgraph.citrix.database;fontColor=#1D3557;fillColor=none;rounded=1;" vertex="1" parent="1">
          <mxGeometry x="405" y="913" width="54.4" height="64" as="geometry" />
        </mxCell>
        <mxCell id="4HTWWz2ys-ZurxW4JA6u-185" value="" style="endArrow=classic;startArrow=classic;html=1;rounded=1;fontColor=#1D3557;strokeColor=#457B9D;fillColor=#A8DADC;strokeWidth=11;" edge="1" parent="1">
          <mxGeometry width="50" height="50" relative="1" as="geometry">
            <mxPoint x="564.5" y="913" as="sourcePoint" />
            <mxPoint x="564.5" y="803" as="targetPoint" />
          </mxGeometry>
        </mxCell>
        <mxCell id="4HTWWz2ys-ZurxW4JA6u-186" value="" style="endArrow=classic;startArrow=none;html=1;rounded=1;fontColor=#1D3557;strokeColor=#457B9D;fillColor=#A8DADC;strokeWidth=11;startFill=0;" edge="1" parent="1">
          <mxGeometry width="50" height="50" relative="1" as="geometry">
            <mxPoint x="260" y="326" as="sourcePoint" />
            <mxPoint x="370" y="326" as="targetPoint" />
          </mxGeometry>
        </mxCell>
        <mxCell id="4HTWWz2ys-ZurxW4JA6u-188" value="&lt;font style=&quot;font-size: 23px;&quot;&gt;NAVEGADOR CLIENTE&lt;/font&gt;" style="rounded=1;whiteSpace=wrap;html=1;strokeColor=#6c8ebf;fillColor=#dae8fc;" vertex="1" parent="1">
          <mxGeometry x="50" y="189" width="210" height="80" as="geometry" />
        </mxCell>
        <mxCell id="4HTWWz2ys-ZurxW4JA6u-175" value="&lt;span style=&quot;line-height: 17.1818180084229px&quot;&gt;BACK END&lt;/span&gt;" style="rounded=1;whiteSpace=wrap;html=1;shadow=0;strokeColor=none;fillColor=#A8DADC;fontSize=18;fontColor=#1D3557;verticalAlign=middle;fontStyle=0;strokeWidth=3;" vertex="1" parent="1">
          <mxGeometry x="435" y="607" width="300" height="50" as="geometry" />
        </mxCell>
        <mxCell id="4HTWWz2ys-ZurxW4JA6u-177" value="" style="verticalLabelPosition=bottom;sketch=0;aspect=fixed;html=1;verticalAlign=top;strokeColor=none;align=center;outlineConnect=0;shape=mxgraph.citrix.document;fontColor=#1D3557;fillColor=none;rounded=1;" vertex="1" parent="1">
          <mxGeometry x="405" y="585" width="47" height="72" as="geometry" />
        </mxCell>
        <mxCell id="4HTWWz2ys-ZurxW4JA6u-192" value="&lt;font style=&quot;font-size: 29px;&quot;&gt;Rolando Tejada&lt;/font&gt;" style="text;html=1;strokeColor=none;fillColor=none;align=center;verticalAlign=middle;whiteSpace=wrap;overflow=hidden;shadow=0;fontSize=36;fontColor=#1D3557;fontStyle=0;rounded=1;" vertex="1" parent="1">
          <mxGeometry x="150" y="75" width="543" height="45" as="geometry" />
        </mxCell>
        <mxCell id="4HTWWz2ys-ZurxW4JA6u-193" value="&lt;font style=&quot;font-size: 18px;&quot;&gt;FRONT END&lt;/font&gt;" style="text;html=1;strokeColor=none;fillColor=none;align=center;verticalAlign=middle;whiteSpace=wrap;overflow=hidden;shadow=0;fontSize=36;fontColor=#1D3557;fontStyle=0;rounded=1;" vertex="1" parent="1">
          <mxGeometry x="85" y="393" width="140" height="40" as="geometry" />
        </mxCell>
        <mxCell id="4HTWWz2ys-ZurxW4JA6u-195" value="● Estructura y estilos: HTML, CSS y framework como Bootstrap&#xa;● Lenguaje programación: TypeScrypt y el framework como Angular ambos&#xa;basados en Javascript" style="text;whiteSpace=wrap;html=1;fontSize=18;fontColor=#1D3557;" vertex="1" parent="1">
          <mxGeometry x="420" y="334" width="325" height="110" as="geometry" />
        </mxCell>
        <mxCell id="4HTWWz2ys-ZurxW4JA6u-199" value="● Base de datos: MySQL&lt;br&gt;● Lenguaje: Java con Framework Spring Boot&lt;br&gt;● Web server: Apache Tomcat" style="text;whiteSpace=wrap;html=1;fontSize=18;fontColor=#1D3557;" vertex="1" parent="1">
          <mxGeometry x="420" y="674" width="315" height="81" as="geometry" />
        </mxCell>
        <mxCell id="4HTWWz2ys-ZurxW4JA6u-200" value="● Base de datos: MySQL" style="text;whiteSpace=wrap;html=1;fontSize=18;fontColor=#1D3557;" vertex="1" parent="1">
          <mxGeometry x="455" y="990" width="230" height="50" as="geometry" />
        </mxCell>
      </root>
    </mxGraphModel>
  </diagram>
</mxfile>
